<svg width="34" height="39" viewBox="0 0 34 39" fill="none" xmlns="http://www.w3.org/2000/svg">
<path d="M5.66669 24.375C4.48613 24.375 3.48266 23.901 2.65627 22.9531C1.82988 22.0052 1.41669 20.8542 1.41669 19.5C1.41669 18.1458 1.82988 16.9948 2.65627 16.0469C3.48266 15.099 4.48613 14.625 5.66669 14.625V11.375C5.66669 10.4812 5.94412 9.71615 6.49898 9.07969C7.05384 8.44323 7.72085 8.125 8.50002 8.125H12.75C12.75 6.77083 13.1632 5.61979 13.9896 4.67188C14.816 3.72396 15.8195 3.25 17 3.25C18.1806 3.25 19.184 3.72396 20.0104 4.67188C20.8368 5.61979 21.25 6.77083 21.25 8.125H25.5C26.2792 8.125 26.9462 8.44323 27.5011 9.07969C28.0559 9.71615 28.3334 10.4812 28.3334 11.375V14.625C29.5139 14.625 30.5174 15.099 31.3438 16.0469C32.1702 16.9948 32.5834 18.1458 32.5834 19.5C32.5834 20.8542 32.1702 22.0052 31.3438 22.9531C30.5174 23.901 29.5139 24.375 28.3334 24.375V30.875C28.3334 31.7687 28.0559 32.5339 27.5011 33.1703C26.9462 33.8068 26.2792 34.125 25.5 34.125H8.50002C7.72085 34.125 7.05384 33.8068 6.49898 33.1703C5.94412 32.5339 5.66669 31.7687 5.66669 30.875V24.375ZM12.75 21.125C13.3403 21.125 13.842 20.888 14.2552 20.4141C14.6684 19.9401 14.875 19.3646 14.875 18.6875C14.875 18.0104 14.6684 17.4349 14.2552 16.9609C13.842 16.487 13.3403 16.25 12.75 16.25C12.1597 16.25 11.658 16.487 11.2448 16.9609C10.8316 17.4349 10.625 18.0104 10.625 18.6875C10.625 19.3646 10.8316 19.9401 11.2448 20.4141C11.658 20.888 12.1597 21.125 12.75 21.125ZM21.25 21.125C21.8403 21.125 22.342 20.888 22.7552 20.4141C23.1684 19.9401 23.375 19.3646 23.375 18.6875C23.375 18.0104 23.1684 17.4349 22.7552 16.9609C22.342 16.487 21.8403 16.25 21.25 16.25C20.6597 16.25 20.158 16.487 19.7448 16.9609C19.3316 17.4349 19.125 18.0104 19.125 18.6875C19.125 19.3646 19.3316 19.9401 19.7448 20.4141C20.158 20.888 20.6597 21.125 21.25 21.125ZM11.3334 27.625H22.6667V24.375H11.3334V27.625ZM8.50002 30.875H25.5V11.375H8.50002V30.875Z" fill="#4000FF"/>
</svg>
